<svg xmlns="http://www.w3.org/2000/svg" version="1.1" xmlns:xlink="http://www.w3.org/1999/xlink" xmlns:svgjs="http://svgjs.dev/svgjs" width="1440" height="560" preserveAspectRatio="none" viewBox="0 0 1440 560"><g mask="url(&quot;#SvgjsMask2298&quot;)" fill="none"><rect width="1440" height="560" x="0" y="0" fill="url(&quot;#SvgjsLinearGradient2299&quot;)"></rect><path d="M0 0L200.45 0L0 240.92z" fill="rgba(255, 255, 255, .1)"></path><path d="M0 240.92L200.45 0L720.23 0L0 305.71999999999997z" fill="rgba(255, 255, 255, .075)"></path><path d="M0 305.71999999999997L720.23 0L821.6600000000001 0L0 322.61999999999995z" fill="rgba(255, 255, 255, .05)"></path><path d="M0 322.61999999999995L821.6600000000001 0L1079.5100000000002 0L0 439.73999999999995z" fill="rgba(255, 255, 255, .025)"></path><path d="M1440 560L1415.74 560L1440 429.37z" fill="rgba(0, 0, 0, .1)"></path><path d="M1440 429.37L1415.74 560L901.79 560L1440 413.04z" fill="rgba(0, 0, 0, .075)"></path><path d="M1440 413.04L901.79 560L675.13 560L1440 199.81000000000003z" fill="rgba(0, 0, 0, .05)"></path><path d="M1440 199.81000000000006L675.13 560L374.21 560L1440 60.33000000000007z" fill="rgba(0, 0, 0, .025)"></path></g><defs><mask id="SvgjsMask2298"><rect width="1440" height="560" fill="#ffffff"></rect></mask><linearGradient x1="15.28%" y1="-39.29%" x2="84.72%" y2="139.29%" gradientUnits="userSpaceOnUse" id="SvgjsLinearGradient2299"><stop stop-color="rgba(14, 42, 71, 1)" offset="0.02"></stop><stop stop-color="rgba(12, 211, 242, 0.78)" offset="0.27"></stop><stop stop-color="rgba(0, 221, 255, 0.53)" offset="0.5"></stop><stop stop-color="rgba(14, 42, 71, 1)" offset="1"></stop></linearGradient></defs></svg>